<mxfile host="app.diagrams.net" modified="2021-12-18T15:20:40.000Z" agent="5.0 (Windows NT 10.0; Win64; x64) AppleWebKit/537.36 (KHTML, like Gecko) Chrome/96.0.4664.110 Safari/537.36" etag="W2E_QfWElYllWqLL7H_w" version="16.0.0" type="github">
  <diagram id="Q0INmKHapKx8R0FfWWIw" name="Page-1">
    <mxGraphModel dx="4076" dy="1494" grid="0" gridSize="10" guides="1" tooltips="1" connect="1" arrows="1" fold="1" page="0" pageScale="1" pageWidth="4681" pageHeight="3300" math="0" shadow="0">
      <root>
        <mxCell id="0" />
        <mxCell id="1" parent="0" />
        <mxCell id="oPfNsMnwlo6Ig9lXClS0-268" value="" style="rounded=0;whiteSpace=wrap;html=1;sketch=1;hachureGap=4;fontFamily=Times New Roman;fontSize=20;" parent="1" vertex="1">
          <mxGeometry x="733" y="118.5" width="773" height="271.5" as="geometry" />
        </mxCell>
        <mxCell id="oPfNsMnwlo6Ig9lXClS0-241" style="edgeStyle=none;curved=1;rounded=0;sketch=1;hachureGap=4;orthogonalLoop=1;jettySize=auto;html=1;entryX=0;entryY=0.5;entryDx=0;entryDy=0;fontFamily=Times New Roman;fontSize=16;endArrow=open;startSize=14;endSize=14;sourcePerimeterSpacing=8;targetPerimeterSpacing=8;" parent="1" source="oPfNsMnwlo6Ig9lXClS0-73" target="oPfNsMnwlo6Ig9lXClS0-57" edge="1">
          <mxGeometry relative="1" as="geometry" />
        </mxCell>
        <mxCell id="oPfNsMnwlo6Ig9lXClS0-73" value="" style="rounded=0;whiteSpace=wrap;html=1;sketch=1;hachureGap=4;fontFamily=Times New Roman;fontSize=20;" parent="1" vertex="1">
          <mxGeometry x="-571" y="80" width="415" height="421" as="geometry" />
        </mxCell>
        <mxCell id="oPfNsMnwlo6Ig9lXClS0-199" style="edgeStyle=none;curved=1;rounded=0;sketch=1;hachureGap=4;orthogonalLoop=1;jettySize=auto;html=1;entryX=0;entryY=0.5;entryDx=0;entryDy=0;fontFamily=Times New Roman;fontSize=16;endArrow=open;startSize=14;endSize=14;sourcePerimeterSpacing=8;targetPerimeterSpacing=8;" parent="1" target="oPfNsMnwlo6Ig9lXClS0-198" edge="1">
          <mxGeometry relative="1" as="geometry">
            <mxPoint x="101" y="271.74425287356325" as="sourcePoint" />
          </mxGeometry>
        </mxCell>
        <mxCell id="oPfNsMnwlo6Ig9lXClS0-57" value="" style="rounded=0;whiteSpace=wrap;html=1;sketch=1;hachureGap=4;fontFamily=Times New Roman;fontSize=20;" parent="1" vertex="1">
          <mxGeometry x="-99" y="182" width="249" height="189" as="geometry" />
        </mxCell>
        <mxCell id="oPfNsMnwlo6Ig9lXClS0-58" value="Giặt 1" style="text;strokeColor=none;fillColor=none;html=1;align=center;verticalAlign=middle;whiteSpace=wrap;rounded=0;sketch=1;hachureGap=4;fontFamily=Times New Roman;fontSize=20;" parent="1" vertex="1">
          <mxGeometry x="-4.5" y="196" width="60" height="30" as="geometry" />
        </mxCell>
        <mxCell id="oPfNsMnwlo6Ig9lXClS0-60" value="Giặt 14&amp;nbsp; phút" style="rounded=0;whiteSpace=wrap;html=1;sketch=1;hachureGap=4;fontFamily=Times New Roman;fontSize=20;" parent="1" vertex="1">
          <mxGeometry x="-54.5" y="226" width="160" height="80" as="geometry" />
        </mxCell>
        <mxCell id="oPfNsMnwlo6Ig9lXClS0-68" value="" style="edgeStyle=none;curved=1;rounded=0;sketch=1;hachureGap=4;orthogonalLoop=1;jettySize=auto;html=1;fontFamily=Times New Roman;fontSize=16;endArrow=open;startSize=14;endSize=14;sourcePerimeterSpacing=8;targetPerimeterSpacing=8;" parent="1" source="oPfNsMnwlo6Ig9lXClS0-61" target="oPfNsMnwlo6Ig9lXClS0-64" edge="1">
          <mxGeometry relative="1" as="geometry" />
        </mxCell>
        <mxCell id="oPfNsMnwlo6Ig9lXClS0-61" value="Nạp nước sạch" style="rounded=0;whiteSpace=wrap;html=1;sketch=1;hachureGap=4;fontFamily=Times New Roman;fontSize=20;" parent="1" vertex="1">
          <mxGeometry x="-520" y="205" width="160" height="49" as="geometry" />
        </mxCell>
        <mxCell id="oPfNsMnwlo6Ig9lXClS0-69" value="" style="edgeStyle=none;curved=1;rounded=0;sketch=1;hachureGap=4;orthogonalLoop=1;jettySize=auto;html=1;fontFamily=Times New Roman;fontSize=16;endArrow=open;startSize=14;endSize=14;sourcePerimeterSpacing=8;targetPerimeterSpacing=8;" parent="1" source="oPfNsMnwlo6Ig9lXClS0-63" target="oPfNsMnwlo6Ig9lXClS0-61" edge="1">
          <mxGeometry relative="1" as="geometry" />
        </mxCell>
        <mxCell id="oPfNsMnwlo6Ig9lXClS0-63" value="Van nạp nước (Ngắt khi đủ nước)" style="rounded=0;whiteSpace=wrap;html=1;sketch=1;hachureGap=4;fontFamily=Times New Roman;fontSize=20;" parent="1" vertex="1">
          <mxGeometry x="-355" y="88" width="160" height="53" as="geometry" />
        </mxCell>
        <mxCell id="oPfNsMnwlo6Ig9lXClS0-64" value="Công tắc mực nước" style="rounded=0;whiteSpace=wrap;html=1;sketch=1;hachureGap=4;fontFamily=Times New Roman;fontSize=20;" parent="1" vertex="1">
          <mxGeometry x="-556" y="85" width="178" height="50" as="geometry" />
        </mxCell>
        <mxCell id="oPfNsMnwlo6Ig9lXClS0-74" value="Nạp bột giặt hoặc nước giặt" style="rounded=0;whiteSpace=wrap;html=1;sketch=1;hachureGap=4;fontFamily=Times New Roman;fontSize=20;" parent="1" vertex="1">
          <mxGeometry x="-532" y="280" width="160" height="80" as="geometry" />
        </mxCell>
        <mxCell id="oPfNsMnwlo6Ig9lXClS0-77" value="" style="edgeStyle=none;curved=1;rounded=0;sketch=1;hachureGap=4;orthogonalLoop=1;jettySize=auto;html=1;fontFamily=Times New Roman;fontSize=16;endArrow=open;startSize=14;endSize=14;sourcePerimeterSpacing=8;targetPerimeterSpacing=8;" parent="1" source="oPfNsMnwlo6Ig9lXClS0-76" target="oPfNsMnwlo6Ig9lXClS0-74" edge="1">
          <mxGeometry relative="1" as="geometry" />
        </mxCell>
        <mxCell id="oPfNsMnwlo6Ig9lXClS0-76" value="Van xả nước nạp xà phòng" style="rounded=0;whiteSpace=wrap;html=1;sketch=1;hachureGap=4;fontFamily=Times New Roman;fontSize=20;" parent="1" vertex="1">
          <mxGeometry x="-529" y="399" width="160" height="80" as="geometry" />
        </mxCell>
        <mxCell id="oPfNsMnwlo6Ig9lXClS0-83" value="" style="edgeStyle=none;curved=1;rounded=0;sketch=1;hachureGap=4;orthogonalLoop=1;jettySize=auto;html=1;fontFamily=Times New Roman;fontSize=16;endArrow=open;startSize=14;endSize=14;sourcePerimeterSpacing=8;targetPerimeterSpacing=8;" parent="1" source="oPfNsMnwlo6Ig9lXClS0-78" target="oPfNsMnwlo6Ig9lXClS0-79" edge="1">
          <mxGeometry relative="1" as="geometry" />
        </mxCell>
        <mxCell id="oPfNsMnwlo6Ig9lXClS0-78" value="Nút Start" style="rounded=0;whiteSpace=wrap;html=1;sketch=1;hachureGap=4;fontFamily=Times New Roman;fontSize=20;" parent="1" vertex="1">
          <mxGeometry x="-1615" y="259" width="160" height="80" as="geometry" />
        </mxCell>
        <mxCell id="oPfNsMnwlo6Ig9lXClS0-212" style="edgeStyle=none;curved=1;rounded=0;sketch=1;hachureGap=4;orthogonalLoop=1;jettySize=auto;html=1;entryX=0.007;entryY=0.668;entryDx=0;entryDy=0;entryPerimeter=0;fontFamily=Times New Roman;fontSize=16;endArrow=open;startSize=14;endSize=14;sourcePerimeterSpacing=8;targetPerimeterSpacing=8;" parent="1" target="oPfNsMnwlo6Ig9lXClS0-207" edge="1">
          <mxGeometry relative="1" as="geometry">
            <mxPoint x="-1224" y="319.85449894673457" as="sourcePoint" />
          </mxGeometry>
        </mxCell>
        <mxCell id="oPfNsMnwlo6Ig9lXClS0-79" value="Xác định khối lượng đồ giặt" style="rounded=0;whiteSpace=wrap;html=1;sketch=1;hachureGap=4;fontFamily=Times New Roman;fontSize=20;" parent="1" vertex="1">
          <mxGeometry x="-1390" y="274" width="160" height="83" as="geometry" />
        </mxCell>
        <mxCell id="oPfNsMnwlo6Ig9lXClS0-80" value="Cảm biến" style="rounded=0;whiteSpace=wrap;html=1;sketch=1;hachureGap=4;fontFamily=Times New Roman;fontSize=20;" parent="1" vertex="1">
          <mxGeometry x="-1508" y="146" width="160" height="80" as="geometry" />
        </mxCell>
        <mxCell id="oPfNsMnwlo6Ig9lXClS0-92" value="" style="edgeStyle=none;orthogonalLoop=1;jettySize=auto;html=1;rounded=0;sketch=1;hachureGap=4;fontFamily=Times New Roman;fontSize=16;endArrow=open;startSize=14;endSize=14;sourcePerimeterSpacing=8;targetPerimeterSpacing=8;curved=1;exitX=0.5;exitY=1;exitDx=0;exitDy=0;" parent="1" source="oPfNsMnwlo6Ig9lXClS0-80" edge="1">
          <mxGeometry width="120" relative="1" as="geometry">
            <mxPoint x="-1249" y="339" as="sourcePoint" />
            <mxPoint x="-1423" y="297" as="targetPoint" />
            <Array as="points" />
          </mxGeometry>
        </mxCell>
        <mxCell id="oPfNsMnwlo6Ig9lXClS0-114" value="" style="edgeStyle=none;curved=1;rounded=0;sketch=1;hachureGap=4;orthogonalLoop=1;jettySize=auto;html=1;fontFamily=Times New Roman;fontSize=16;endArrow=open;startSize=14;endSize=14;sourcePerimeterSpacing=8;targetPerimeterSpacing=8;" parent="1" source="oPfNsMnwlo6Ig9lXClS0-113" target="oPfNsMnwlo6Ig9lXClS0-78" edge="1">
          <mxGeometry relative="1" as="geometry" />
        </mxCell>
        <mxCell id="oPfNsMnwlo6Ig9lXClS0-113" value="Bật nguồn" style="rounded=0;whiteSpace=wrap;html=1;sketch=1;hachureGap=4;fontFamily=Times New Roman;fontSize=20;" parent="1" vertex="1">
          <mxGeometry x="-1819" y="262" width="160" height="80" as="geometry" />
        </mxCell>
        <mxCell id="oPfNsMnwlo6Ig9lXClS0-269" style="edgeStyle=none;curved=1;rounded=0;sketch=1;hachureGap=4;orthogonalLoop=1;jettySize=auto;html=1;entryX=0;entryY=0.5;entryDx=0;entryDy=0;fontFamily=Times New Roman;fontSize=16;endArrow=open;startSize=14;endSize=14;sourcePerimeterSpacing=8;targetPerimeterSpacing=8;" parent="1" source="oPfNsMnwlo6Ig9lXClS0-198" target="oPfNsMnwlo6Ig9lXClS0-268" edge="1">
          <mxGeometry relative="1" as="geometry" />
        </mxCell>
        <mxCell id="oPfNsMnwlo6Ig9lXClS0-198" value="" style="rounded=0;whiteSpace=wrap;html=1;sketch=1;hachureGap=4;fontFamily=Times New Roman;fontSize=20;" parent="1" vertex="1">
          <mxGeometry x="198" y="135" width="454" height="287" as="geometry" />
        </mxCell>
        <mxCell id="oPfNsMnwlo6Ig9lXClS0-200" value="Xả nước bẩn" style="rounded=0;whiteSpace=wrap;html=1;sketch=1;hachureGap=4;fontFamily=Times New Roman;fontSize=20;" parent="1" vertex="1">
          <mxGeometry x="240" y="350" width="160" height="49" as="geometry" />
        </mxCell>
        <mxCell id="oPfNsMnwlo6Ig9lXClS0-202" value="Van xả nước" style="rounded=0;whiteSpace=wrap;html=1;sketch=1;hachureGap=4;fontFamily=Times New Roman;fontSize=20;" parent="1" vertex="1">
          <mxGeometry x="240" y="191" width="160" height="42" as="geometry" />
        </mxCell>
        <mxCell id="oPfNsMnwlo6Ig9lXClS0-205" value="Vắt 1" style="text;strokeColor=none;fillColor=none;html=1;align=center;verticalAlign=middle;whiteSpace=wrap;rounded=0;sketch=1;hachureGap=4;fontFamily=Times New Roman;fontSize=20;" parent="1" vertex="1">
          <mxGeometry x="405" y="141" width="60" height="30" as="geometry" />
        </mxCell>
        <mxCell id="oPfNsMnwlo6Ig9lXClS0-206" value="Quay theo 1 chiều trong 4 ph" style="rounded=0;whiteSpace=wrap;html=1;sketch=1;hachureGap=4;fontFamily=Times New Roman;fontSize=20;" parent="1" vertex="1">
          <mxGeometry x="539" y="231" width="89" height="69" as="geometry" />
        </mxCell>
        <mxCell id="oPfNsMnwlo6Ig9lXClS0-242" style="edgeStyle=none;curved=1;rounded=0;sketch=1;hachureGap=4;orthogonalLoop=1;jettySize=auto;html=1;entryX=0;entryY=0.426;entryDx=0;entryDy=0;entryPerimeter=0;fontFamily=Times New Roman;fontSize=16;endArrow=open;startSize=14;endSize=14;sourcePerimeterSpacing=8;targetPerimeterSpacing=8;" parent="1" source="oPfNsMnwlo6Ig9lXClS0-207" target="oPfNsMnwlo6Ig9lXClS0-73" edge="1">
          <mxGeometry relative="1" as="geometry" />
        </mxCell>
        <mxCell id="oPfNsMnwlo6Ig9lXClS0-207" value="" style="rounded=0;whiteSpace=wrap;html=1;sketch=1;hachureGap=4;fontFamily=Times New Roman;fontSize=20;" parent="1" vertex="1">
          <mxGeometry x="-1183" y="88" width="560" height="355" as="geometry" />
        </mxCell>
        <mxCell id="oPfNsMnwlo6Ig9lXClS0-208" value="Lập chương trình giặt theo khối lượng" style="text;strokeColor=none;fillColor=none;html=1;align=center;verticalAlign=middle;whiteSpace=wrap;rounded=0;sketch=1;hachureGap=4;fontFamily=Times New Roman;fontSize=20;" parent="1" vertex="1">
          <mxGeometry x="-1070.5" y="100" width="335" height="30" as="geometry" />
        </mxCell>
        <mxCell id="oPfNsMnwlo6Ig9lXClS0-214" value="" style="shape=table;startSize=0;container=1;collapsible=0;childLayout=tableLayout;sketch=1;hachureGap=4;fontFamily=Times New Roman;fontSize=20;" parent="1" vertex="1">
          <mxGeometry x="-1160" y="143.75" width="522" height="236" as="geometry" />
        </mxCell>
        <mxCell id="oPfNsMnwlo6Ig9lXClS0-215" value="" style="shape=partialRectangle;collapsible=0;dropTarget=0;pointerEvents=0;fillColor=none;top=0;left=0;bottom=0;right=0;points=[[0,0.5],[1,0.5]];portConstraint=eastwest;sketch=1;hachureGap=4;fontFamily=Times New Roman;fontSize=20;" parent="oPfNsMnwlo6Ig9lXClS0-214" vertex="1">
          <mxGeometry width="522" height="59" as="geometry" />
        </mxCell>
        <mxCell id="oPfNsMnwlo6Ig9lXClS0-216" value="" style="shape=partialRectangle;html=1;whiteSpace=wrap;connectable=0;overflow=hidden;fillColor=none;top=0;left=0;bottom=0;right=0;pointerEvents=1;sketch=1;hachureGap=4;fontFamily=Times New Roman;fontSize=20;" parent="oPfNsMnwlo6Ig9lXClS0-215" vertex="1">
          <mxGeometry width="130" height="59" as="geometry">
            <mxRectangle width="130" height="59" as="alternateBounds" />
          </mxGeometry>
        </mxCell>
        <mxCell id="oPfNsMnwlo6Ig9lXClS0-217" value="Ít (&amp;lt;2 kg)" style="shape=partialRectangle;html=1;whiteSpace=wrap;connectable=0;overflow=hidden;fillColor=none;top=0;left=0;bottom=0;right=0;pointerEvents=1;sketch=1;hachureGap=4;fontFamily=Times New Roman;fontSize=20;" parent="oPfNsMnwlo6Ig9lXClS0-215" vertex="1">
          <mxGeometry x="130" width="132" height="59" as="geometry">
            <mxRectangle width="132" height="59" as="alternateBounds" />
          </mxGeometry>
        </mxCell>
        <mxCell id="oPfNsMnwlo6Ig9lXClS0-218" value="Vừa (2-4 kg)" style="shape=partialRectangle;html=1;whiteSpace=wrap;connectable=0;overflow=hidden;fillColor=none;top=0;left=0;bottom=0;right=0;pointerEvents=1;sketch=1;hachureGap=4;fontFamily=Times New Roman;fontSize=20;" parent="oPfNsMnwlo6Ig9lXClS0-215" vertex="1">
          <mxGeometry x="262" width="130" height="59" as="geometry">
            <mxRectangle width="130" height="59" as="alternateBounds" />
          </mxGeometry>
        </mxCell>
        <mxCell id="oPfNsMnwlo6Ig9lXClS0-219" value="Nhiều (4-6 kg)" style="shape=partialRectangle;html=1;whiteSpace=wrap;connectable=0;overflow=hidden;fillColor=none;top=0;left=0;bottom=0;right=0;pointerEvents=1;sketch=1;hachureGap=4;fontFamily=Times New Roman;fontSize=20;" parent="oPfNsMnwlo6Ig9lXClS0-215" vertex="1">
          <mxGeometry x="392" width="130" height="59" as="geometry">
            <mxRectangle width="130" height="59" as="alternateBounds" />
          </mxGeometry>
        </mxCell>
        <mxCell id="oPfNsMnwlo6Ig9lXClS0-220" value="" style="shape=partialRectangle;collapsible=0;dropTarget=0;pointerEvents=0;fillColor=none;top=0;left=0;bottom=0;right=0;points=[[0,0.5],[1,0.5]];portConstraint=eastwest;sketch=1;hachureGap=4;fontFamily=Times New Roman;fontSize=20;" parent="oPfNsMnwlo6Ig9lXClS0-214" vertex="1">
          <mxGeometry y="59" width="522" height="60" as="geometry" />
        </mxCell>
        <mxCell id="oPfNsMnwlo6Ig9lXClS0-221" value="Mức nước max trong thùng (lít)" style="shape=partialRectangle;html=1;whiteSpace=wrap;connectable=0;overflow=hidden;fillColor=none;top=0;left=0;bottom=0;right=0;pointerEvents=1;sketch=1;hachureGap=4;fontFamily=Times New Roman;fontSize=20;" parent="oPfNsMnwlo6Ig9lXClS0-220" vertex="1">
          <mxGeometry width="130" height="60" as="geometry">
            <mxRectangle width="130" height="60" as="alternateBounds" />
          </mxGeometry>
        </mxCell>
        <mxCell id="oPfNsMnwlo6Ig9lXClS0-222" value="16" style="shape=partialRectangle;html=1;whiteSpace=wrap;connectable=0;overflow=hidden;fillColor=none;top=0;left=0;bottom=0;right=0;pointerEvents=1;sketch=1;hachureGap=4;fontFamily=Times New Roman;fontSize=20;" parent="oPfNsMnwlo6Ig9lXClS0-220" vertex="1">
          <mxGeometry x="130" width="132" height="60" as="geometry">
            <mxRectangle width="132" height="60" as="alternateBounds" />
          </mxGeometry>
        </mxCell>
        <mxCell id="oPfNsMnwlo6Ig9lXClS0-223" value="30" style="shape=partialRectangle;html=1;whiteSpace=wrap;connectable=0;overflow=hidden;fillColor=none;top=0;left=0;bottom=0;right=0;pointerEvents=1;sketch=1;hachureGap=4;fontFamily=Times New Roman;fontSize=20;" parent="oPfNsMnwlo6Ig9lXClS0-220" vertex="1">
          <mxGeometry x="262" width="130" height="60" as="geometry">
            <mxRectangle width="130" height="60" as="alternateBounds" />
          </mxGeometry>
        </mxCell>
        <mxCell id="oPfNsMnwlo6Ig9lXClS0-224" value="45" style="shape=partialRectangle;html=1;whiteSpace=wrap;connectable=0;overflow=hidden;fillColor=none;top=0;left=0;bottom=0;right=0;pointerEvents=1;sketch=1;hachureGap=4;fontFamily=Times New Roman;fontSize=20;" parent="oPfNsMnwlo6Ig9lXClS0-220" vertex="1">
          <mxGeometry x="392" width="130" height="60" as="geometry">
            <mxRectangle width="130" height="60" as="alternateBounds" />
          </mxGeometry>
        </mxCell>
        <mxCell id="oPfNsMnwlo6Ig9lXClS0-225" value="" style="shape=partialRectangle;collapsible=0;dropTarget=0;pointerEvents=0;fillColor=none;top=0;left=0;bottom=0;right=0;points=[[0,0.5],[1,0.5]];portConstraint=eastwest;sketch=1;hachureGap=4;fontFamily=Times New Roman;fontSize=20;" parent="oPfNsMnwlo6Ig9lXClS0-214" vertex="1">
          <mxGeometry y="119" width="522" height="59" as="geometry" />
        </mxCell>
        <mxCell id="oPfNsMnwlo6Ig9lXClS0-226" value="" style="shape=partialRectangle;html=1;whiteSpace=wrap;connectable=0;overflow=hidden;fillColor=none;top=0;left=0;bottom=0;right=0;pointerEvents=1;sketch=1;hachureGap=4;fontFamily=Times New Roman;fontSize=20;" parent="oPfNsMnwlo6Ig9lXClS0-225" vertex="1">
          <mxGeometry width="130" height="59" as="geometry">
            <mxRectangle width="130" height="59" as="alternateBounds" />
          </mxGeometry>
        </mxCell>
        <mxCell id="oPfNsMnwlo6Ig9lXClS0-227" value="3" style="shape=partialRectangle;html=1;whiteSpace=wrap;connectable=0;overflow=hidden;fillColor=none;top=0;left=0;bottom=0;right=0;pointerEvents=1;sketch=1;hachureGap=4;fontFamily=Times New Roman;fontSize=20;" parent="oPfNsMnwlo6Ig9lXClS0-225" vertex="1">
          <mxGeometry x="130" width="132" height="59" as="geometry">
            <mxRectangle width="132" height="59" as="alternateBounds" />
          </mxGeometry>
        </mxCell>
        <mxCell id="oPfNsMnwlo6Ig9lXClS0-228" value="3" style="shape=partialRectangle;html=1;whiteSpace=wrap;connectable=0;overflow=hidden;fillColor=none;top=0;left=0;bottom=0;right=0;pointerEvents=1;sketch=1;hachureGap=4;fontFamily=Times New Roman;fontSize=20;" parent="oPfNsMnwlo6Ig9lXClS0-225" vertex="1">
          <mxGeometry x="262" width="130" height="59" as="geometry">
            <mxRectangle width="130" height="59" as="alternateBounds" />
          </mxGeometry>
        </mxCell>
        <mxCell id="oPfNsMnwlo6Ig9lXClS0-229" value="3" style="shape=partialRectangle;html=1;whiteSpace=wrap;connectable=0;overflow=hidden;fillColor=none;top=0;left=0;bottom=0;right=0;pointerEvents=1;sketch=1;hachureGap=4;fontFamily=Times New Roman;fontSize=20;" parent="oPfNsMnwlo6Ig9lXClS0-225" vertex="1">
          <mxGeometry x="392" width="130" height="59" as="geometry">
            <mxRectangle width="130" height="59" as="alternateBounds" />
          </mxGeometry>
        </mxCell>
        <mxCell id="oPfNsMnwlo6Ig9lXClS0-230" value="" style="shape=partialRectangle;collapsible=0;dropTarget=0;pointerEvents=0;fillColor=none;top=0;left=0;bottom=0;right=0;points=[[0,0.5],[1,0.5]];portConstraint=eastwest;sketch=1;hachureGap=4;fontFamily=Times New Roman;fontSize=20;" parent="oPfNsMnwlo6Ig9lXClS0-214" vertex="1">
          <mxGeometry y="178" width="522" height="58" as="geometry" />
        </mxCell>
        <mxCell id="oPfNsMnwlo6Ig9lXClS0-231" value="Thời gian giũ (giặt 2 + vắt 2)" style="shape=partialRectangle;html=1;whiteSpace=wrap;connectable=0;overflow=hidden;fillColor=none;top=0;left=0;bottom=0;right=0;pointerEvents=1;sketch=1;hachureGap=4;fontFamily=Times New Roman;fontSize=20;" parent="oPfNsMnwlo6Ig9lXClS0-230" vertex="1">
          <mxGeometry width="130" height="58" as="geometry">
            <mxRectangle width="130" height="58" as="alternateBounds" />
          </mxGeometry>
        </mxCell>
        <mxCell id="oPfNsMnwlo6Ig9lXClS0-232" value="3 + 4" style="shape=partialRectangle;html=1;whiteSpace=wrap;connectable=0;overflow=hidden;fillColor=none;top=0;left=0;bottom=0;right=0;pointerEvents=1;sketch=1;hachureGap=4;fontFamily=Times New Roman;fontSize=20;" parent="oPfNsMnwlo6Ig9lXClS0-230" vertex="1">
          <mxGeometry x="130" width="132" height="58" as="geometry">
            <mxRectangle width="132" height="58" as="alternateBounds" />
          </mxGeometry>
        </mxCell>
        <mxCell id="oPfNsMnwlo6Ig9lXClS0-233" value="3.5 + 5" style="shape=partialRectangle;html=1;whiteSpace=wrap;connectable=0;overflow=hidden;fillColor=none;top=0;left=0;bottom=0;right=0;pointerEvents=1;sketch=1;hachureGap=4;fontFamily=Times New Roman;fontSize=20;" parent="oPfNsMnwlo6Ig9lXClS0-230" vertex="1">
          <mxGeometry x="262" width="130" height="58" as="geometry">
            <mxRectangle width="130" height="58" as="alternateBounds" />
          </mxGeometry>
        </mxCell>
        <mxCell id="oPfNsMnwlo6Ig9lXClS0-234" value="4+6" style="shape=partialRectangle;html=1;whiteSpace=wrap;connectable=0;overflow=hidden;fillColor=none;top=0;left=0;bottom=0;right=0;pointerEvents=1;sketch=1;hachureGap=4;fontFamily=Times New Roman;fontSize=20;" parent="oPfNsMnwlo6Ig9lXClS0-230" vertex="1">
          <mxGeometry x="392" width="130" height="58" as="geometry">
            <mxRectangle width="130" height="58" as="alternateBounds" />
          </mxGeometry>
        </mxCell>
        <mxCell id="oPfNsMnwlo6Ig9lXClS0-243" value="Cả hai công tắc này sẽ mở đến khi nào đủ lượng nước trong thúng" style="text;strokeColor=none;fillColor=none;html=1;align=center;verticalAlign=middle;whiteSpace=wrap;rounded=0;sketch=1;hachureGap=4;fontFamily=Times New Roman;fontSize=20;" parent="1" vertex="1">
          <mxGeometry x="-320" y="336" width="131" height="133" as="geometry" />
        </mxCell>
        <mxCell id="oPfNsMnwlo6Ig9lXClS0-247" value="" style="edgeStyle=none;orthogonalLoop=1;jettySize=auto;html=1;rounded=0;sketch=1;hachureGap=4;fontFamily=Times New Roman;fontSize=16;endArrow=open;startSize=14;endSize=14;targetPerimeterSpacing=8;curved=1;entryX=0.5;entryY=0;entryDx=0;entryDy=0;exitX=0.5;exitY=1;exitDx=0;exitDy=0;startArrow=none;" parent="1" source="oPfNsMnwlo6Ig9lXClS0-248" target="oPfNsMnwlo6Ig9lXClS0-200" edge="1">
          <mxGeometry width="120" relative="1" as="geometry">
            <mxPoint x="435" y="256" as="sourcePoint" />
            <mxPoint x="555" y="256" as="targetPoint" />
            <Array as="points" />
          </mxGeometry>
        </mxCell>
        <mxCell id="oPfNsMnwlo6Ig9lXClS0-250" style="edgeStyle=none;curved=1;rounded=0;sketch=1;hachureGap=4;orthogonalLoop=1;jettySize=auto;html=1;fontFamily=Times New Roman;fontSize=16;endArrow=open;startSize=14;endSize=14;sourcePerimeterSpacing=8;targetPerimeterSpacing=8;" parent="1" source="oPfNsMnwlo6Ig9lXClS0-248" target="oPfNsMnwlo6Ig9lXClS0-206" edge="1">
          <mxGeometry relative="1" as="geometry" />
        </mxCell>
        <mxCell id="oPfNsMnwlo6Ig9lXClS0-248" value="Cảm biến xác định mức nước" style="text;strokeColor=none;fillColor=none;html=1;align=center;verticalAlign=middle;whiteSpace=wrap;rounded=0;sketch=1;hachureGap=4;fontFamily=Times New Roman;fontSize=20;" parent="1" vertex="1">
          <mxGeometry x="240" y="266" width="160" height="30" as="geometry" />
        </mxCell>
        <mxCell id="oPfNsMnwlo6Ig9lXClS0-249" value="" style="edgeStyle=none;orthogonalLoop=1;jettySize=auto;html=1;rounded=0;sketch=1;hachureGap=4;fontFamily=Times New Roman;fontSize=16;endArrow=none;startSize=14;endSize=14;sourcePerimeterSpacing=8;curved=1;entryX=0.5;entryY=0;entryDx=0;entryDy=0;exitX=0.5;exitY=1;exitDx=0;exitDy=0;" parent="1" source="oPfNsMnwlo6Ig9lXClS0-202" target="oPfNsMnwlo6Ig9lXClS0-248" edge="1">
          <mxGeometry width="120" relative="1" as="geometry">
            <mxPoint x="320" y="233" as="sourcePoint" />
            <mxPoint x="320" y="336" as="targetPoint" />
            <Array as="points" />
          </mxGeometry>
        </mxCell>
        <mxCell id="oPfNsMnwlo6Ig9lXClS0-251" value="Hết nước" style="text;strokeColor=none;fillColor=none;html=1;align=center;verticalAlign=middle;whiteSpace=wrap;rounded=0;sketch=1;hachureGap=4;fontFamily=Times New Roman;fontSize=20;" parent="1" vertex="1">
          <mxGeometry x="426" y="236" width="87" height="30" as="geometry" />
        </mxCell>
        <mxCell id="oPfNsMnwlo6Ig9lXClS0-252" value="Nạp nước sạch" style="rounded=0;whiteSpace=wrap;html=1;sketch=1;hachureGap=4;fontFamily=Times New Roman;fontSize=20;" parent="1" vertex="1">
          <mxGeometry x="759" y="304" width="160" height="56" as="geometry" />
        </mxCell>
        <mxCell id="oPfNsMnwlo6Ig9lXClS0-253" value="Giũ" style="text;strokeColor=none;fillColor=none;html=1;align=center;verticalAlign=middle;whiteSpace=wrap;rounded=0;sketch=1;hachureGap=4;fontFamily=Times New Roman;fontSize=20;" parent="1" vertex="1">
          <mxGeometry x="1116" y="135" width="60" height="30" as="geometry" />
        </mxCell>
        <mxCell id="oPfNsMnwlo6Ig9lXClS0-256" value="" style="edgeStyle=none;curved=1;rounded=0;sketch=1;hachureGap=4;orthogonalLoop=1;jettySize=auto;html=1;fontFamily=Times New Roman;fontSize=16;endArrow=open;startSize=14;endSize=14;sourcePerimeterSpacing=8;targetPerimeterSpacing=8;" parent="1" source="oPfNsMnwlo6Ig9lXClS0-255" target="oPfNsMnwlo6Ig9lXClS0-252" edge="1">
          <mxGeometry relative="1" as="geometry" />
        </mxCell>
        <mxCell id="oPfNsMnwlo6Ig9lXClS0-258" value="" style="edgeStyle=none;curved=1;rounded=0;sketch=1;hachureGap=4;orthogonalLoop=1;jettySize=auto;html=1;fontFamily=Times New Roman;fontSize=16;endArrow=open;startSize=14;endSize=14;sourcePerimeterSpacing=8;targetPerimeterSpacing=8;" parent="1" source="oPfNsMnwlo6Ig9lXClS0-255" target="oPfNsMnwlo6Ig9lXClS0-257" edge="1">
          <mxGeometry relative="1" as="geometry" />
        </mxCell>
        <mxCell id="oPfNsMnwlo6Ig9lXClS0-255" value="Cảm biến mức nước" style="rounded=0;whiteSpace=wrap;html=1;sketch=1;hachureGap=4;fontFamily=Times New Roman;fontSize=20;" parent="1" vertex="1">
          <mxGeometry x="759" y="191" width="160" height="66" as="geometry" />
        </mxCell>
        <mxCell id="oPfNsMnwlo6Ig9lXClS0-261" value="" style="edgeStyle=none;curved=1;rounded=0;sketch=1;hachureGap=4;orthogonalLoop=1;jettySize=auto;html=1;fontFamily=Times New Roman;fontSize=16;endArrow=open;startSize=14;endSize=14;sourcePerimeterSpacing=8;targetPerimeterSpacing=8;" parent="1" source="oPfNsMnwlo6Ig9lXClS0-257" target="oPfNsMnwlo6Ig9lXClS0-260" edge="1">
          <mxGeometry relative="1" as="geometry" />
        </mxCell>
        <mxCell id="oPfNsMnwlo6Ig9lXClS0-257" value="" style="rounded=0;whiteSpace=wrap;html=1;sketch=1;hachureGap=4;fontFamily=Times New Roman;fontSize=20;" parent="1" vertex="1">
          <mxGeometry x="1075" y="163" width="161" height="94" as="geometry" />
        </mxCell>
        <mxCell id="oPfNsMnwlo6Ig9lXClS0-259" value="Đủ nước" style="text;strokeColor=none;fillColor=none;html=1;align=center;verticalAlign=middle;whiteSpace=wrap;rounded=0;sketch=1;hachureGap=4;fontFamily=Times New Roman;fontSize=20;" parent="1" vertex="1">
          <mxGeometry x="951" y="231" width="79" height="30" as="geometry" />
        </mxCell>
        <mxCell id="oPfNsMnwlo6Ig9lXClS0-265" value="" style="edgeStyle=none;curved=1;rounded=0;sketch=1;hachureGap=4;orthogonalLoop=1;jettySize=auto;html=1;fontFamily=Times New Roman;fontSize=16;endArrow=open;startSize=14;endSize=14;sourcePerimeterSpacing=8;targetPerimeterSpacing=8;entryX=0;entryY=0.5;entryDx=0;entryDy=0;" parent="1" source="oPfNsMnwlo6Ig9lXClS0-260" target="oPfNsMnwlo6Ig9lXClS0-262" edge="1">
          <mxGeometry relative="1" as="geometry" />
        </mxCell>
        <mxCell id="oPfNsMnwlo6Ig9lXClS0-260" value="Cảm biến mức nước" style="rounded=0;whiteSpace=wrap;html=1;sketch=1;hachureGap=4;fontFamily=Times New Roman;fontSize=20;" parent="1" vertex="1">
          <mxGeometry x="1075" y="312" width="160" height="48" as="geometry" />
        </mxCell>
        <mxCell id="oPfNsMnwlo6Ig9lXClS0-281" value="" style="edgeStyle=none;curved=1;rounded=0;sketch=1;hachureGap=4;orthogonalLoop=1;jettySize=auto;html=1;fontFamily=Times New Roman;fontSize=16;endArrow=open;startSize=14;endSize=14;sourcePerimeterSpacing=8;targetPerimeterSpacing=8;" parent="1" source="oPfNsMnwlo6Ig9lXClS0-262" target="oPfNsMnwlo6Ig9lXClS0-280" edge="1">
          <mxGeometry relative="1" as="geometry" />
        </mxCell>
        <mxCell id="oPfNsMnwlo6Ig9lXClS0-262" value="Xả nước" style="rounded=0;whiteSpace=wrap;html=1;sketch=1;hachureGap=4;fontFamily=Times New Roman;fontSize=20;" parent="1" vertex="1">
          <mxGeometry x="1312" y="193" width="160" height="49" as="geometry" />
        </mxCell>
        <mxCell id="oPfNsMnwlo6Ig9lXClS0-275" value="" style="edgeStyle=none;orthogonalLoop=1;jettySize=auto;html=1;rounded=0;sketch=1;hachureGap=4;fontFamily=Times New Roman;fontSize=16;endArrow=open;startSize=14;endSize=14;sourcePerimeterSpacing=8;targetPerimeterSpacing=8;curved=1;" parent="1" edge="1">
          <mxGeometry width="120" relative="1" as="geometry">
            <mxPoint x="775" y="203" as="sourcePoint" />
            <mxPoint x="895" y="203" as="targetPoint" />
            <Array as="points" />
          </mxGeometry>
        </mxCell>
        <mxCell id="oPfNsMnwlo6Ig9lXClS0-277" value="" style="edgeStyle=none;orthogonalLoop=1;jettySize=auto;html=1;rounded=0;sketch=1;hachureGap=4;fontFamily=Times New Roman;fontSize=16;endArrow=open;startSize=14;endSize=14;sourcePerimeterSpacing=8;targetPerimeterSpacing=8;curved=1;" parent="1" edge="1">
          <mxGeometry width="120" relative="1" as="geometry">
            <mxPoint x="1389" y="402" as="sourcePoint" />
            <mxPoint x="689" y="259" as="targetPoint" />
            <Array as="points">
              <mxPoint x="1156" y="402" />
              <mxPoint x="900" y="413" />
              <mxPoint x="811" y="434" />
              <mxPoint x="664" y="413" />
            </Array>
          </mxGeometry>
        </mxCell>
        <mxCell id="oPfNsMnwlo6Ig9lXClS0-278" value="Chưa đủ số lần giũ?" style="text;strokeColor=none;fillColor=none;html=1;align=center;verticalAlign=middle;whiteSpace=wrap;rounded=0;sketch=1;hachureGap=4;fontFamily=Times New Roman;fontSize=20;" parent="1" vertex="1">
          <mxGeometry x="965" y="418" width="181" height="30" as="geometry" />
        </mxCell>
        <mxCell id="oPfNsMnwlo6Ig9lXClS0-279" value="Đủ số lần giũ" style="text;strokeColor=none;fillColor=none;html=1;align=center;verticalAlign=middle;whiteSpace=wrap;rounded=0;sketch=1;hachureGap=4;fontFamily=Times New Roman;fontSize=20;" parent="1" vertex="1">
          <mxGeometry x="1391" y="421" width="124" height="30" as="geometry" />
        </mxCell>
        <mxCell id="oPfNsMnwlo6Ig9lXClS0-282" style="edgeStyle=none;curved=1;rounded=0;sketch=1;hachureGap=4;orthogonalLoop=1;jettySize=auto;html=1;entryX=0.5;entryY=0;entryDx=0;entryDy=0;fontFamily=Times New Roman;fontSize=16;endArrow=open;startSize=14;endSize=14;sourcePerimeterSpacing=8;targetPerimeterSpacing=8;" parent="1" source="oPfNsMnwlo6Ig9lXClS0-280" edge="1">
          <mxGeometry relative="1" as="geometry">
            <mxPoint x="1382.5" y="479" as="targetPoint" />
          </mxGeometry>
        </mxCell>
        <mxCell id="oPfNsMnwlo6Ig9lXClS0-280" value="Vắt 2" style="rounded=0;whiteSpace=wrap;html=1;sketch=1;hachureGap=4;fontFamily=Times New Roman;fontSize=20;" parent="1" vertex="1">
          <mxGeometry x="1312" y="304" width="160" height="47" as="geometry" />
        </mxCell>
        <mxCell id="oPfNsMnwlo6Ig9lXClS0-283" value="Bật Công tắc chuyển trục (từ truyền động hộp số sang truyền động trực tiếp vào lồng giặt)" style="rounded=0;whiteSpace=wrap;html=1;sketch=1;hachureGap=4;fontFamily=Times New Roman;fontSize=20;" parent="1" vertex="1">
          <mxGeometry x="39" y="2" width="272" height="80" as="geometry" />
        </mxCell>
        <mxCell id="oPfNsMnwlo6Ig9lXClS0-286" value="" style="edgeStyle=none;orthogonalLoop=1;jettySize=auto;html=1;rounded=0;sketch=1;hachureGap=4;fontFamily=Times New Roman;fontSize=16;endArrow=open;startSize=14;endSize=14;sourcePerimeterSpacing=8;targetPerimeterSpacing=8;curved=1;exitX=0.5;exitY=1;exitDx=0;exitDy=0;" parent="1" source="oPfNsMnwlo6Ig9lXClS0-283" edge="1">
          <mxGeometry width="120" relative="1" as="geometry">
            <mxPoint x="36" y="128" as="sourcePoint" />
            <mxPoint x="174" y="277" as="targetPoint" />
            <Array as="points" />
          </mxGeometry>
        </mxCell>
        <mxCell id="oPfNsMnwlo6Ig9lXClS0-287" value="Ngắt Công tắc chuyển trục (truyền động hộp số)" style="rounded=0;whiteSpace=wrap;html=1;sketch=1;hachureGap=4;fontFamily=Times New Roman;fontSize=20;" parent="1" vertex="1">
          <mxGeometry x="559" y="-3" width="272" height="80" as="geometry" />
        </mxCell>
        <mxCell id="oPfNsMnwlo6Ig9lXClS0-288" value="" style="edgeStyle=none;orthogonalLoop=1;jettySize=auto;html=1;rounded=0;sketch=1;hachureGap=4;fontFamily=Times New Roman;fontSize=16;endArrow=open;startSize=14;endSize=14;sourcePerimeterSpacing=8;targetPerimeterSpacing=8;curved=1;exitX=0.5;exitY=1;exitDx=0;exitDy=0;" parent="1" source="oPfNsMnwlo6Ig9lXClS0-287" edge="1">
          <mxGeometry width="120" relative="1" as="geometry">
            <mxPoint x="500" y="147" as="sourcePoint" />
            <mxPoint x="689" y="255" as="targetPoint" />
            <Array as="points" />
          </mxGeometry>
        </mxCell>
        <mxCell id="oPfNsMnwlo6Ig9lXClS0-290" value="Bật Công tắc chuyển trục&amp;nbsp;" style="rounded=0;whiteSpace=wrap;html=1;sketch=1;hachureGap=4;fontFamily=Times New Roman;fontSize=20;" parent="1" vertex="1">
          <mxGeometry x="1545" y="151" width="272" height="57" as="geometry" />
        </mxCell>
        <mxCell id="oPfNsMnwlo6Ig9lXClS0-292" value="" style="edgeStyle=none;orthogonalLoop=1;jettySize=auto;html=1;rounded=0;sketch=1;hachureGap=4;fontFamily=Times New Roman;fontSize=16;endArrow=open;startSize=14;endSize=14;sourcePerimeterSpacing=8;targetPerimeterSpacing=8;curved=1;exitX=0;exitY=1;exitDx=0;exitDy=0;" parent="1" source="oPfNsMnwlo6Ig9lXClS0-290" edge="1">
          <mxGeometry width="120" relative="1" as="geometry">
            <mxPoint x="1617" y="319.38" as="sourcePoint" />
            <mxPoint x="1392" y="276" as="targetPoint" />
            <Array as="points" />
          </mxGeometry>
        </mxCell>
        <mxCell id="oPfNsMnwlo6Ig9lXClS0-294" style="edgeStyle=none;curved=1;rounded=0;sketch=1;hachureGap=4;orthogonalLoop=1;jettySize=auto;html=1;fontFamily=Times New Roman;fontSize=16;endArrow=open;startSize=14;endSize=14;sourcePerimeterSpacing=8;targetPerimeterSpacing=8;" parent="1" source="oPfNsMnwlo6Ig9lXClS0-293" target="oPfNsMnwlo6Ig9lXClS0-79" edge="1">
          <mxGeometry relative="1" as="geometry" />
        </mxCell>
        <mxCell id="oPfNsMnwlo6Ig9lXClS0-293" value="Cách nào đây?" style="rounded=0;whiteSpace=wrap;html=1;sketch=1;hachureGap=4;fontFamily=Times New Roman;fontSize=20;" parent="1" vertex="1">
          <mxGeometry x="-1558" y="439" width="166" height="70" as="geometry" />
        </mxCell>
        <mxCell id="oPfNsMnwlo6Ig9lXClS0-296" value="Số lần Giũ (7p/lần)" style="shape=partialRectangle;html=1;whiteSpace=wrap;connectable=0;overflow=hidden;fillColor=none;top=0;left=0;bottom=0;right=0;pointerEvents=1;sketch=1;hachureGap=4;fontFamily=Times New Roman;fontSize=20;" parent="1" vertex="1">
          <mxGeometry x="-1155.5" y="266" width="130" height="58" as="geometry">
            <mxRectangle width="130" height="58" as="alternateBounds" />
          </mxGeometry>
        </mxCell>
        <mxCell id="oPfNsMnwlo6Ig9lXClS0-297" value="Kết thúc chương trình" style="rounded=0;whiteSpace=wrap;html=1;sketch=1;hachureGap=4;fontFamily=Times New Roman;fontSize=20;" parent="1" vertex="1">
          <mxGeometry x="1305" y="483" width="160" height="63" as="geometry" />
        </mxCell>
        <mxCell id="oPfNsMnwlo6Ig9lXClS0-299" value="Kết thúc 1 tiến trình cần xác định xem thùng giặt đã dừng quay chưa. Nhưng mà cách nào đây?" style="text;strokeColor=none;fillColor=none;html=1;align=center;verticalAlign=middle;whiteSpace=wrap;rounded=0;sketch=1;hachureGap=4;fontFamily=Times New Roman;fontSize=20;" parent="1" vertex="1">
          <mxGeometry x="-89" y="394" width="234" height="89" as="geometry" />
        </mxCell>
        <mxCell id="Lo1ZA__ad0a5rrvnWeWf-3" value="Đảo chiều sau 30 giấy (đã bao gồm thời gian tăng tốc và giảm tốc)" style="text;html=1;strokeColor=none;fillColor=none;align=center;verticalAlign=middle;whiteSpace=wrap;rounded=0;fontSize=18;" vertex="1" parent="1">
          <mxGeometry x="-83" y="314" width="217" height="52" as="geometry" />
        </mxCell>
        <mxCell id="Lo1ZA__ad0a5rrvnWeWf-4" value="Giặt 2" style="rounded=0;whiteSpace=wrap;html=1;fontSize=18;" vertex="1" parent="1">
          <mxGeometry x="1101" y="171" width="120" height="43" as="geometry" />
        </mxCell>
        <mxCell id="Lo1ZA__ad0a5rrvnWeWf-5" value="tương tự giặt 1, thời gian theo chế độ" style="text;html=1;strokeColor=none;fillColor=none;align=center;verticalAlign=middle;whiteSpace=wrap;rounded=0;fontSize=18;" vertex="1" parent="1">
          <mxGeometry x="1045.5" y="216" width="220" height="46" as="geometry" />
        </mxCell>
        <mxCell id="Lo1ZA__ad0a5rrvnWeWf-8" style="edgeStyle=orthogonalEdgeStyle;rounded=0;orthogonalLoop=1;jettySize=auto;html=1;entryX=0.75;entryY=1;entryDx=0;entryDy=0;fontSize=18;" edge="1" parent="1" source="Lo1ZA__ad0a5rrvnWeWf-7" target="oPfNsMnwlo6Ig9lXClS0-206">
          <mxGeometry relative="1" as="geometry" />
        </mxCell>
        <mxCell id="Lo1ZA__ad0a5rrvnWeWf-9" style="edgeStyle=orthogonalEdgeStyle;rounded=0;orthogonalLoop=1;jettySize=auto;html=1;entryX=0;entryY=0.75;entryDx=0;entryDy=0;fontSize=18;" edge="1" parent="1" source="Lo1ZA__ad0a5rrvnWeWf-7" target="oPfNsMnwlo6Ig9lXClS0-280">
          <mxGeometry relative="1" as="geometry" />
        </mxCell>
        <mxCell id="Lo1ZA__ad0a5rrvnWeWf-7" value="Khi vắt, động cơ quay theo 1 chiều, lúc đầu quay trong 5 giây rồi ngắt trong 5 giây, sau cỡ 6 lần như thế (tầm 1p30) sau đó coi như động cơ đạt tốc độ max rồi cứ chạy thế đến hết thời gian vắt" style="text;html=1;strokeColor=none;fillColor=none;align=center;verticalAlign=middle;whiteSpace=wrap;rounded=0;fontSize=18;" vertex="1" parent="1">
          <mxGeometry x="533" y="526" width="548" height="73" as="geometry" />
        </mxCell>
      </root>
    </mxGraphModel>
  </diagram>
</mxfile>
